<?xml version="1.0" encoding="UTF-8"?>
<svg version="1.1" xmlns="http://www.w3.org/2000/svg" width="1000" height="1000">
<path d="M0 0 C1.19625 0.144375 2.3925 0.28875 3.625 0.4375 C5.20177613 3.27018096 5.92754651 5.53254056 6.21582031 8.75488281 C6.29665359 9.60798538 6.37748688 10.46108795 6.46076965 11.34004211 C6.54074692 12.26423447 6.62072418 13.18842682 6.703125 14.140625 C6.89277685 16.15425047 7.08281646 18.16783944 7.27319336 20.18139648 C7.37082977 21.24204315 7.46846619 22.30268982 7.56906128 23.39547729 C12.61169762 84.08773047 12.61169762 84.08773047 29.80078125 142.140625 C33.00244649 151.06280112 28.35203395 162.31102907 24.625 170.4375 C22.52353286 174.63862579 20.29519824 178.77149617 18.0703125 182.90820312 C9.97218618 198.09760316 2.93147977 214.0489796 -2.375 230.4375 C-2.03210938 230.03402344 -1.68921875 229.63054687 -1.3359375 229.21484375 C9.39657496 216.7640719 20.89475408 205.06635286 32.5 193.4375 C33.08744995 192.84746185 33.6748999 192.25742371 34.28015137 191.64950562 C40.55349395 185.35439426 46.85462859 179.20233104 53.625 173.4375 C55.40070221 171.81782183 57.17208307 170.19338282 58.9375 168.5625 C64.3399752 163.64172698 69.92737581 159.0104951 75.625 154.4375 C76.75698786 153.51360551 77.88847487 152.5890971 79.01953125 151.6640625 C151.12311638 92.96647547 235.35452508 59.08634355 639.6875 26.25 C640.76095673 26.24900299 641.83441345 26.24800598 642.94039917 26.24697876 C645.93039274 26.24729927 648.92019534 26.25612928 651.91015625 26.26953125 C653.1813884 26.27134399 653.1813884 26.27134399 654.478302 26.27319336 C660.24041313 26.31838241 665.90166711 26.77758307 671.625 27.4375 C670.14427037 32.46728002 667.99112908 36.77049428 665.4375 41.3125 C665.01476807 42.06974365 664.59203613 42.8269873 664.15649414 43.60717773 C648.11762183 71.94487817 648.11762183 71.94487817 643.625 76.4375 C641.58562128 76.50157126 639.54404688 76.49641786 637.50390625 76.46484375 C635.53901245 76.44405762 635.53901245 76.44405762 633.53442383 76.42285156 C632.8281485 76.41451294 632.12187317 76.40617432 631.39419556 76.39758301 C588.87771121 75.96247537 546.30552176 80.08320751 504.625 88.4375 C505.25995392 88.43083817 505.89490784 88.42417633 506.54910278 88.41731262 C589.91426904 87.5831875 589.91426904 87.5831875 610.625 96.4375 C610.90814546 105.0734365 611.02996882 113.96792064 605.875 121.3125 C603.50392617 123.30158422 601.68181038 124.4248332 598.53335571 124.46257019 C595.94642926 124.1881992 593.40415205 123.79368582 590.83984375 123.35546875 C589.87547897 123.20715103 588.9111142 123.05883331 587.91752625 122.90602112 C585.86310477 122.58986182 583.80981282 122.26628786 581.75762939 121.93591309 C576.67616946 121.12743375 571.58191943 120.41057293 566.48828125 119.68359375 C564.42079758 119.3844933 562.35333359 119.08525687 560.28588867 118.78588867 C541.90272894 116.1397886 523.61497658 113.52553103 505.05029297 112.61132812 C501.8297789 112.4478922 498.61216644 112.25808109 495.39369202 112.05953979 C437.58328102 108.49637394 380.40439796 110.45762328 322.625 113.4375 C322.625 112.7775 322.625 112.1175 322.625 111.4375 C323.53825546 111.25339066 324.45151093 111.06928131 325.3924408 110.8795929 C337.1181144 108.5144769 348.84119266 106.13665885 360.5625 103.75 C361.49951878 103.55921497 362.43653755 103.36842995 363.40195084 103.17186356 C396.59427803 96.40892226 429.65656198 89.22329434 462.625 81.4375 C355.30335504 97.49760949 355.30335504 97.49760949 249.67431641 121.8651123 C247.66094621 122.42745998 245.64532656 122.98092761 243.62890625 123.53222656 C192.06087291 137.69490616 141.58011271 161.53977156 98.625 193.4375 C97.9141626 193.95876465 97.2033252 194.4800293 96.47094727 195.01708984 C87.20765125 201.8116328 78.28293019 208.88520461 69.625 216.4375 C68.68684448 217.25081787 68.68684448 217.25081787 67.72973633 218.08056641 C63.18096584 222.03692611 58.71213153 226.06605197 54.3125 230.1875 C53.6417041 230.8151123 52.9709082 231.44272461 52.27978516 232.08935547 C45.74186777 238.25051658 39.39984316 244.60284208 33.09643555 251.00292969 C26.75815926 257.41210392 26.75815926 257.41210392 23.5078125 259.9921875 C20.51944581 262.52703513 18.13419802 265.23565375 15.59765625 268.20703125 C11.00739934 273.39720293 5.94161909 278.15545732 1.0078125 283.015625 C-3.44533375 287.42816505 -7.75241518 291.88610059 -11.83300781 296.64599609 C-14.07092776 299.24603672 -16.41178445 301.73975357 -18.75 304.25 C-23.86095045 309.79624048 -28.69282462 315.52371264 -33.375 321.4375 C-34.18638428 322.45602051 -34.18638428 322.45602051 -35.01416016 323.49511719 C-41.20554677 331.28215223 -47.26336446 338.97875623 -52.42578125 347.49609375 C-55.08514826 351.50912653 -58.07304399 355.2294358 -61.0625 359 C-76.42192561 378.46883484 -90.0130508 399.88124037 -100.375 422.4375 C-100.70983398 423.16227539 -101.04466797 423.88705078 -101.38964844 424.63378906 C-114.21982889 452.06149598 -114.21982889 452.06149598 -114.1640625 481.19921875 C-110.63772819 490.37602652 -106.09767299 499.04763895 -101.4453125 507.69140625 C-95.60691628 518.55478145 -90.02930768 529.55838455 -84.40637207 540.53431702 C-82.29495673 544.65387462 -80.16531204 548.76335064 -78.0234375 552.8671875 C-77.09842918 554.66118559 -76.17390229 556.45543206 -75.25 558.25 C-74.62061523 559.43903931 -74.62061523 559.43903931 -73.97851562 560.65209961 C-71.32285207 565.86133068 -71.32285207 565.86133068 -71.56030273 568.48486328 C-72.59174634 570.95698972 -73.7190715 571.77312909 -75.91796875 573.28515625 C-76.65499023 573.80215088 -77.39201172 574.31914551 -78.15136719 574.85180664 C-78.94704102 575.39571045 -79.74271484 575.93961426 -80.5625 576.5 C-82.21901511 577.66444039 -83.8739471 578.83113593 -85.52734375 580 C-86.76266846 580.87011719 -86.76266846 580.87011719 -88.02294922 581.7578125 C-108.22008926 596.18134618 -128.19325575 613.22546504 -144.359375 632.0859375 C-145.8752416 633.85444854 -147.40971288 635.6070391 -148.953125 637.3515625 C-161.53388048 651.64865864 -172.70194798 666.96558455 -182.98388672 682.98657227 C-183.80590576 684.25392212 -183.80590576 684.25392212 -184.64453125 685.546875 C-185.12510986 686.29936523 -185.60568848 687.05185547 -186.10083008 687.82714844 C-186.52130615 688.35856445 -186.94178223 688.88998047 -187.375 689.4375 C-188.035 689.4375 -188.695 689.4375 -189.375 689.4375 C-187.5246706 653.61557408 -181.05952347 619.45992019 -172.1875 584.75 C-171.70651855 582.8632959 -171.70651855 582.8632959 -171.21582031 580.93847656 C-170.30255238 577.42772005 -169.35463016 573.93029118 -168.375 570.4375 C-168.04935059 569.27524902 -167.72370117 568.11299805 -167.38818359 566.91552734 C-167.0577002 565.82320801 -166.7272168 564.73088867 -166.38671875 563.60546875 C-166.09627686 562.63246826 -165.80583496 561.65946777 -165.5065918 560.65698242 C-164.375 558.4375 -164.375 558.4375 -162.49145508 557.63012695 C-160.49710396 557.44861317 -158.49843946 557.31643158 -156.5 557.1875 C-151.92767315 556.62553804 -149.54498368 554.82864533 -146.375 551.4375 C-143.08089064 545.9118972 -142.89851343 541.52657641 -144.375 535.4375 C-145.81032813 531.96249505 -146.97777285 530.71463522 -150.0625 528.5625 C-154.2379044 527.14443813 -157.16740694 527.21133516 -161.375 528.4375 C-166.24918046 530.92057306 -168.66643547 533.21688617 -170.375 538.4375 C-170.76477546 543.21585845 -170.80074042 547.80619759 -169.5859375 552.4609375 C-169.25640468 558.67324146 -171.63839236 563.84246113 -173.75 569.625 C-182.36987322 594.1188785 -188.86596925 619.69377746 -192.375 645.4375 C-192.55450195 646.66637939 -192.73400391 647.89525879 -192.91894531 649.16137695 C-193.98176705 656.86300205 -194.49835413 664.36810741 -194.3671875 672.14453125 C-193.86107927 706.58925161 -193.86107927 706.58925161 -206.06225586 721.23632812 C-207.375 722.4375 -207.375 722.4375 -209.375 722.4375 C-209.86003256 720.29298495 -210.33770405 718.14680465 -210.8125 716 C-211.21275391 714.20755859 -211.21275391 714.20755859 -211.62109375 712.37890625 C-213.18007516 704.70594926 -213.54736233 697.03088645 -213.61328125 689.21875 C-213.62312042 688.25566925 -213.63295959 687.2925885 -213.64309692 686.30032349 C-214.27379296 608.34645006 -191.80264872 535.75620942 -159.375 465.4375 C-158.73667236 464.04700439 -158.73667236 464.04700439 -158.08544922 462.62841797 C-152.58476406 450.68037587 -146.64551814 438.9989628 -140.375 427.4375 C-139.56699951 425.94500732 -139.56699951 425.94500732 -138.74267578 424.42236328 C-121.76171739 393.17377572 -103.24161385 362.58735862 -82.80273438 333.47314453 C-81.21115261 331.20388859 -79.6288299 328.92832048 -78.046875 326.65234375 C-77.46526611 325.81985107 -76.88365723 324.9873584 -76.28442383 324.12963867 C-75.09729222 322.42178686 -73.91996547 320.70707671 -72.75268555 318.9855957 C-69.84317532 314.73920697 -66.89226086 310.81684909 -63.34765625 307.078125 C-56.56880695 299.83383738 -56.56880695 299.83383738 -54.44335938 290.49169922 C-55.61525563 283.66445165 -57.96368299 277.24343379 -60.29345703 270.74023438 C-61.98344434 265.57947856 -62.89560035 260.35291314 -63.75 255 C-63.9039624 254.09612549 -64.0579248 253.19225098 -64.21655273 252.26098633 C-77.56215412 170.92750497 -43.41590695 88.47012638 -13.484375 14.76171875 C-13.21042404 14.07882782 -12.93647308 13.39593689 -12.65422058 12.69235229 C-7.50409307 0.13188213 -7.50409307 0.13188213 0 0 Z M466.625 79.4375 C470.625 80.4375 470.625 80.4375 470.625 80.4375 Z M-19.375 139.4375 C-26.47035895 158.8214168 -30.02665214 178.85750259 -32.8125 199.25 C-33.10663498 201.35428981 -33.40107541 203.45853694 -33.69580078 205.56274414 C-36.41949429 225.16863187 -38.8570767 244.8115 -41.2109375 264.46484375 C-41.31478256 265.32949249 -41.41862762 266.19414124 -41.52561951 267.08499146 C-42.2109575 272.86281908 -42.81436545 278.64628081 -43.375 284.4375 C-41.46176031 281.56764046 -40.57559598 279.36308002 -39.52734375 276.109375 C-38.99753906 274.46884155 -38.99753906 274.46884155 -38.45703125 272.79516602 C-38.07933594 271.60463623 -37.70164063 270.41410645 -37.3125 269.1875 C-36.91546875 267.94476318 -36.5184375 266.70202637 -36.109375 265.42163086 C-32.81161355 255.04017976 -29.76094996 244.59240614 -26.76489258 234.12060547 C-24.88255147 227.5542825 -22.95577271 221.00702667 -20.9140625 214.48828125 C-20.71097473 213.83962601 -20.50788696 213.19097076 -20.29864502 212.5226593 C-19.33440699 209.45061781 -18.3620564 206.38136605 -17.38085938 203.31469727 C-11.73728566 185.46806465 -8.79017093 171.32938206 -14.3125 153.1875 C-14.70436032 151.8456015 -15.0943467 150.5031543 -15.48242188 149.16015625 C-16.42841395 145.913418 -17.39277977 142.67342502 -18.375 139.4375 C-18.705 139.4375 -19.035 139.4375 -19.375 139.4375 Z " fill="#48683D" transform="translate(273.375,180.5625)"/>
<path d="M0 0 C17.65384705 3.34098368 35.21971733 6.54122122 53.1171875 8.23828125 C53.96134216 8.31977417 54.80549683 8.40126709 55.67523193 8.48522949 C121.15698441 14.74526138 187.55190161 13.05859893 253.19921875 10.30078125 C259.54801243 10.04325272 265.88864371 10.00758459 272.2421875 10.11328125 C270.82910001 12.93945624 269.20276113 13.13053446 266.28515625 14.29296875 C265.21112549 14.72101807 264.13709473 15.14906738 263.03051758 15.59008789 C261.84224365 16.0514917 260.65396973 16.51289551 259.4296875 16.98828125 C258.8162851 17.22771454 258.20288269 17.46714783 257.57089233 17.71383667 C184.83042649 46.02077234 106.72848818 66.15536124 20.2421875 74.11328125 C19.05560547 74.21543945 17.86902344 74.31759766 16.64648438 74.42285156 C-33.95546328 78.46555654 -88.03500487 64.8836869 -136.52931213 51.38587952 C-147.71692045 48.27877379 -158.9379844 45.29535734 -170.1552124 42.29736328 C-174.94982308 41.01551364 -179.74357788 39.73047918 -184.53735352 38.44551086 C-187.88892768 37.54843297 -191.24151736 36.65523216 -194.59423828 35.76245117 C-198.44656416 34.73567261 -202.29374039 33.6930897 -206.13623047 32.63012695 C-215.59179906 30.03435106 -224.87109824 28.06692193 -234.6328125 26.92578125 C-235.92840088 26.76561523 -237.22398926 26.60544922 -238.55883789 26.44042969 C-252.24856435 24.78999913 -265.99275301 23.87516777 -279.7578125 23.11328125 C-275.75445509 14.3167024 -262.25700719 6.9775971 -253.7578125 3.11328125 C-198.93858013 -8.44175302 -130.12466613 17.85417159 -78.91647339 36.5586853 C-57.31989028 44.74828071 -57.31989028 44.74828071 -34.7578125 48.11328125 C-36.31653076 47.70505127 -36.31653076 47.70505127 -37.90673828 47.28857422 C-54.88087332 42.61720921 -71.01910923 35.81275778 -87.2980957 29.18786621 C-124.62183035 13.45298514 -124.62183035 13.45298514 -163.3203125 1.80078125 C-164.02016266 1.63585175 -164.72001282 1.47092224 -165.44107056 1.30099487 C-186.11309936 -3.5638882 -206.50479486 -5.95465719 -227.7578125 -5.88671875 C-227.7578125 -6.54671875 -227.7578125 -7.20671875 -227.7578125 -7.88671875 C-154.19371991 -30.19512483 -73.77440441 -13.9977807 0 0 Z M-26.7578125 50.11328125 C-26.7578125 50.44328125 -26.7578125 50.77328125 -26.7578125 51.11328125 C-25.1078125 51.11328125 -23.4578125 51.11328125 -21.7578125 51.11328125 C-21.7578125 50.78328125 -21.7578125 50.45328125 -21.7578125 50.11328125 C-23.4078125 50.11328125 -25.0578125 50.11328125 -26.7578125 50.11328125 Z M-20.7578125 51.11328125 C-16.7578125 52.11328125 -16.7578125 52.11328125 -16.7578125 52.11328125 Z " fill="#48683D" transform="translate(565.7578125,469.88671875)"/>
<path d="M0 0 C1.31153046 -0.0033284 2.62306091 -0.0066568 3.97433472 -0.01008606 C6.75975358 -0.01605351 9.54514162 -0.01792963 12.33056641 -0.01733398 C15.09300549 -0.01725454 17.85527229 -0.02390038 20.61767578 -0.0378418 C60.90458537 -0.23676193 100.95368368 2.78676013 141.09741211 5.94433594 C147.49824303 6.44749245 153.90005073 6.93681803 160.30221272 7.4227047 C165.34353927 7.80737544 170.3841506 8.20086802 175.42461205 8.59669876 C177.7828594 8.7806262 180.14133369 8.96167377 182.50005531 9.13941574 C243.36219571 13.74470975 243.36219571 13.74470975 253.4296875 21.16796875 C253.81624095 22.82310177 254.15398704 24.49080503 254.4296875 26.16796875 C248.50591008 31.00509937 242.47970294 35.13150601 235.8046875 38.85546875 C234.8986377 39.36601807 233.99258789 39.87656738 233.05908203 40.40258789 C184.88618192 67.35480108 134.60965157 88.24485777 81.21972656 102.17236328 C78.79928957 102.80818794 76.38383493 103.46351007 73.97558594 104.14404297 C63.87550203 106.91584695 63.87550203 106.91584695 58.4296875 105.16796875 C55.51894663 103.4738471 52.8993409 101.48164777 50.2421875 99.41796875 C48.64738223 98.22534474 47.04961752 97.03666994 45.44921875 95.8515625 C44.62502441 95.24038574 43.80083008 94.62920898 42.95166016 93.99951172 C-1.62758387 61.62453702 -53.64199633 40.43685003 -108.5703125 36.16796875 C-108.5703125 35.50796875 -108.5703125 34.84796875 -108.5703125 34.16796875 C-75.58092463 28.2370638 -75.58092463 28.2370638 -61.5703125 27.16796875 C-60.34127197 27.06742187 -60.34127197 27.06742187 -59.08740234 26.96484375 C-24.95513678 24.32904971 8.99614872 29.75418784 42.4296875 36.16796875 C9.32811718 19.02996782 -23.42600977 13.22064728 -60.5703125 11.16796875 C-60.5703125 10.50796875 -60.5703125 9.84796875 -60.5703125 9.16796875 C-52.08089436 6.40191917 -43.60679298 4.50239118 -34.8203125 2.98046875 C-33.86310303 2.81385742 -32.90589355 2.64724609 -31.91967773 2.47558594 C-21.23741181 0.68278383 -10.83253233 0.00985806 0 0 Z " fill="#48683D" transform="translate(589.5703125,302.83203125)"/>
<path d="M0 0 C1.47605713 0.13704346 1.47605713 0.13704346 2.98193359 0.27685547 C22.01986184 2.23278636 39.77795921 6.73276279 57.3125 14.375 C58.16908203 14.74753906 59.02566406 15.12007813 59.90820312 15.50390625 C85.79295031 26.94360725 117.28020658 42.85689949 134.3125 66.375 C134.3125 67.035 134.3125 67.695 134.3125 68.375 C125.03210326 69.97510207 115.83506201 70.88964414 106.4375 71.4375 C105.07192697 71.5204546 103.70636724 71.60362848 102.34082031 71.68701172 C91.51533471 72.33903388 80.68722725 72.94582091 69.84716797 73.29150391 C68.21308267 73.34533334 66.57922548 73.40692097 64.94580078 73.47802734 C49.81494406 74.11480982 35.19769927 71.88440666 20.3125 69.375 C18.97115997 69.14946442 18.97115997 69.14946442 17.60272217 68.91937256 C-4.69889011 65.15482539 -26.98592374 61.28133521 -49 56.0625 C-49.6716217 55.90382446 -50.34324341 55.74514893 -51.03521729 55.58166504 C-58.84597151 53.72030652 -66.52086541 51.5788666 -74.16479492 49.12036133 C-76.56875298 48.28054935 -76.56875298 48.28054935 -78.6875 48.375 C-59.39411993 59.30001876 -39.40495245 66.90606499 -17.97070312 72.5246582 C-15.86110978 73.08728591 -13.77144568 73.72376698 -11.6875 74.375 C-11.3575 75.035 -11.0275 75.695 -10.6875 76.375 C-11.83710205 76.46998779 -12.9867041 76.56497559 -14.17114258 76.6628418 C-62.40024315 80.68543219 -108.68373214 88.08641872 -155.48828125 100.4921875 C-160.86674018 101.91636626 -166.24369953 103.22702876 -171.6875 104.375 C-165.89190529 97.44855754 -159.75252288 91.20954283 -152.91015625 85.31640625 C-150.35773117 83.08695939 -147.86862486 80.79498618 -145.375 78.5 C-140.88736568 74.40742565 -136.27819772 70.52229166 -131.55078125 66.7109375 C-129.03377818 64.65750253 -126.56249766 62.56002537 -124.10205078 60.43945312 C-116.2504974 53.69108966 -108.05540424 47.46699124 -99.6875 41.375 C-99.00671387 40.8785498 -98.32592773 40.38209961 -97.62451172 39.87060547 C-69.11608865 19.17824734 -36.9138547 -3.43763941 0 0 Z " fill="#48683D" transform="translate(479.6875,347.625)"/>
</svg>
